<?xml version="1.0" encoding="UTF-8"?>
<svg version="1.1" xmlns="http://www.w3.org/2000/svg" width="1024" height="1024">
<path d="M0 0 C337.92 0 675.84 0 1024 0 C1024 337.92 1024 675.84 1024 1024 C686.08 1024 348.16 1024 0 1024 C0 686.08 0 348.16 0 0 Z " fill="#000919" transform="translate(0,0)"/>
<path d="M0 0 C0.92303071 -0.00367669 1.84606142 -0.00735338 2.79706275 -0.01114148 C5.90921883 -0.02220908 9.02134156 -0.02602738 12.1335144 -0.02983093 C14.35725512 -0.03609333 16.58099478 -0.04273993 18.80473328 -0.04974365 C24.86074034 -0.0671758 30.91673949 -0.07771174 36.97276545 -0.08594918 C40.75487436 -0.09109531 44.53698081 -0.09717126 48.31908798 -0.10346031 C58.79161051 -0.12033436 69.26413189 -0.13496844 79.73666573 -0.14220905 C82.45504889 -0.14411895 85.17343205 -0.14603928 87.89181519 -0.147995 C88.56745525 -0.14847874 89.24309532 -0.14896248 89.93920933 -0.14946087 C100.87832611 -0.15775692 111.81733339 -0.18308532 122.75640239 -0.21557567 C133.98882707 -0.24866504 145.22119821 -0.26632697 156.45367801 -0.26985329 C162.75963894 -0.27220548 169.06542691 -0.28118787 175.37134171 -0.30631447 C181.30568682 -0.32957749 187.23974489 -0.33383535 193.17412376 -0.32355309 C195.35095232 -0.32305717 197.52779491 -0.32939405 199.70458031 -0.34310913 C202.67978095 -0.36080393 205.6539489 -0.35373326 208.62915039 -0.34057617 C209.48772868 -0.35154542 210.34630697 -0.36251466 211.23090279 -0.37381631 C218.14311964 -0.30017453 223.55998027 1.51162517 228.50802612 6.45967102 C232.05988221 12.11633071 233.5776249 16.44900696 233.48658752 23.14050293 C233.47962419 24.14277049 233.47962419 24.14277049 233.47252017 25.16528589 C233.4538291 27.38645172 233.41374956 29.60671038 233.37399292 31.82759094 C233.35679781 33.42847653 233.34117378 35.02937965 233.32699585 36.6302948 C233.29472407 40.07337723 233.25444578 43.51624196 233.20886803 46.9591732 C233.13961491 52.43236363 233.10764585 57.90538088 233.08415222 63.37893677 C233.07792572 64.76997274 233.07792572 64.76997274 233.07157344 66.18911046 C233.06312545 68.08572293 233.05474873 69.98233572 233.04644167 71.87894881 C232.98885663 84.60984816 232.90651006 97.33948781 232.7260437 110.06929016 C232.60440905 118.66940737 232.5417385 127.26787994 232.54308826 135.868882 C232.54151435 140.40539912 232.51234721 144.9375058 232.41034508 149.47296715 C231.87163103 174.38583861 235.36740821 190.78940662 250.19552612 211.14717102 C252.89642906 215.19852543 252.84599672 218.3906048 252.19552612 223.14717102 C249.77409092 228.17630567 247.35023557 230.16883684 242.19552612 232.14717102 C238.48984572 232.58460984 234.80908503 232.56483963 231.08103943 232.54830933 C229.3962927 232.55850433 229.3962927 232.55850433 227.67751068 232.56890529 C223.91201887 232.58790374 220.14685159 232.58543869 216.38131714 232.58296204 C213.68245228 232.5919378 210.98361289 232.60206059 208.28475952 232.61349487 C201.71389368 232.6383904 195.14310859 232.64665825 188.57219953 232.64833201 C183.23104816 232.64975839 177.88992339 232.6559271 172.54878044 232.66543388 C157.40185516 232.69184508 142.25499359 232.70569304 127.10804511 232.70344246 C125.88375666 232.70326266 125.88375666 232.70326266 124.63473511 232.70307922 C123.81754523 232.70295658 123.00035535 232.70283394 122.15840214 232.70270758 C108.91025671 232.70148783 95.66236692 232.73020763 82.41429544 232.77249432 C68.80757413 232.81558284 55.20097752 232.83630513 41.59418625 232.833713 C33.95638887 232.8327171 26.31885964 232.84095735 18.68112373 232.87324715 C12.17938475 232.90055861 5.6780355 232.90709142 -0.823736 232.88671888 C-4.14032117 232.87692112 -7.456003 232.88001549 -10.77254677 232.90277863 C-14.37003664 232.92587269 -17.96555725 232.91205312 -21.56300354 232.8888855 C-22.60853171 232.90431619 -23.65405989 232.91974688 -24.73127073 232.93564516 C-30.71008107 232.85044741 -34.10953224 232.01102122 -38.47311932 227.82422012 C-40.70781582 225.00927068 -41.71882188 222.65585233 -42.31619263 219.10810852 C-41.55194675 213.19249541 -38.64941807 208.83605841 -35.61697388 203.77217102 C-34.45666212 201.78528266 -33.2965038 199.79830469 -32.13650513 197.81123352 C-31.35883789 196.50339905 -31.35883789 196.50339905 -30.56546021 195.16914368 C-29.69377197 193.67326721 -29.69377197 193.67326721 -28.80447388 192.14717102 C-28.39351565 191.58939437 -27.98255743 191.03161772 -27.55914593 190.45693874 C-22.61689362 183.09515196 -23.13016757 175.34505101 -23.22439575 166.83052063 C-23.22412877 165.18702005 -23.22159016 163.54351851 -23.21696472 161.90002441 C-23.21158051 158.37556283 -23.22153507 154.85160399 -23.24345398 151.32720757 C-23.27744347 145.74995323 -23.2732092 140.17312005 -23.26333618 134.59579468 C-23.24770835 122.75866576 -23.27391694 110.92175729 -23.30447388 99.08467102 C-23.3374695 86.30017626 -23.36323651 73.51591881 -23.34059763 60.73138243 C-23.33221926 55.19122579 -23.34796116 49.65182871 -23.38239288 44.11178005 C-23.39887425 40.66205494 -23.39466859 37.21257578 -23.38494682 33.76283455 C-23.38468755 32.16812008 -23.39296266 30.57337689 -23.4105854 28.97875977 C-23.51506833 19.03808703 -22.83659738 12.46165816 -15.85525513 5.08857727 C-15.28162231 4.63353821 -14.7079895 4.17849915 -14.11697388 3.70967102 C-13.53560669 3.23658508 -12.9542395 2.76349915 -12.35525513 2.27607727 C-8.50091528 -0.5297268 -4.58425544 -0.00096927 0 0 Z " fill="#000A19" transform="translate(145.80447387695313,380.8528289794922)"/>
<path d="M0 0 C0.92303071 -0.00367669 1.84606142 -0.00735338 2.79706275 -0.01114148 C5.90921883 -0.02220908 9.02134156 -0.02602738 12.1335144 -0.02983093 C14.35725512 -0.03609333 16.58099478 -0.04273993 18.80473328 -0.04974365 C24.86074034 -0.0671758 30.91673949 -0.07771174 36.97276545 -0.08594918 C40.75487436 -0.09109531 44.53698081 -0.09717126 48.31908798 -0.10346031 C58.79161051 -0.12033436 69.26413189 -0.13496844 79.73666573 -0.14220905 C82.45504889 -0.14411895 85.17343205 -0.14603928 87.89181519 -0.147995 C88.56745525 -0.14847874 89.24309532 -0.14896248 89.93920933 -0.14946087 C100.87832611 -0.15775692 111.81733339 -0.18308532 122.75640239 -0.21557567 C133.98882707 -0.24866504 145.22119821 -0.26632697 156.45367801 -0.26985329 C162.75963894 -0.27220548 169.06542691 -0.28118787 175.37134171 -0.30631447 C181.30568682 -0.32957749 187.23974489 -0.33383535 193.17412376 -0.32355309 C195.35095232 -0.32305717 197.52779491 -0.32939405 199.70458031 -0.34310913 C202.67978095 -0.36080393 205.6539489 -0.35373326 208.62915039 -0.34057617 C209.48772868 -0.35154542 210.34630697 -0.36251466 211.23090279 -0.37381631 C218.14311964 -0.30017453 223.55998027 1.51162517 228.50802612 6.45967102 C232.05988221 12.11633071 233.5776249 16.44900696 233.48658752 23.14050293 C233.47962419 24.14277049 233.47962419 24.14277049 233.47252017 25.16528589 C233.4538291 27.38645172 233.41374956 29.60671038 233.37399292 31.82759094 C233.35679781 33.42847653 233.34117378 35.02937965 233.32699585 36.6302948 C233.29472407 40.07337723 233.25444578 43.51624196 233.20886803 46.9591732 C233.13961491 52.43236363 233.10764585 57.90538088 233.08415222 63.37893677 C233.07792572 64.76997274 233.07792572 64.76997274 233.07157344 66.18911046 C233.06312545 68.08572293 233.05474873 69.98233572 233.04644167 71.87894881 C232.98885663 84.60984816 232.90651006 97.33948781 232.7260437 110.06929016 C232.60440905 118.66940737 232.5417385 127.26787994 232.54308826 135.868882 C232.54151435 140.40539912 232.51234721 144.9375058 232.41034508 149.47296715 C231.87163103 174.38583861 235.36740821 190.78940662 250.19552612 211.14717102 C252.89642906 215.19852543 252.84599672 218.3906048 252.19552612 223.14717102 C249.77409092 228.17630567 247.35023557 230.16883684 242.19552612 232.14717102 C238.48984572 232.58460984 234.80908503 232.56483963 231.08103943 232.54830933 C229.3962927 232.55850433 229.3962927 232.55850433 227.67751068 232.56890529 C223.91201887 232.58790374 220.14685159 232.58543869 216.38131714 232.58296204 C213.68245228 232.5919378 210.98361289 232.60206059 208.28475952 232.61349487 C201.71389368 232.6383904 195.14310859 232.64665825 188.57219953 232.64833201 C183.23104816 232.64975839 177.88992339 232.6559271 172.54878044 232.66543388 C157.40185516 232.69184508 142.25499359 232.70569304 127.10804511 232.70344246 C125.88375666 232.70326266 125.88375666 232.70326266 124.63473511 232.70307922 C123.81754523 232.70295658 123.00035535 232.70283394 122.15840214 232.70270758 C108.91025671 232.70148783 95.66236692 232.73020763 82.41429544 232.77249432 C68.80757413 232.81558284 55.20097752 232.83630513 41.59418625 232.833713 C33.95638887 232.8327171 26.31885964 232.84095735 18.68112373 232.87324715 C12.17938475 232.90055861 5.6780355 232.90709142 -0.823736 232.88671888 C-4.14032117 232.87692112 -7.456003 232.88001549 -10.77254677 232.90277863 C-14.37003664 232.92587269 -17.96555725 232.91205312 -21.56300354 232.8888855 C-22.60853171 232.90431619 -23.65405989 232.91974688 -24.73127073 232.93564516 C-30.71008107 232.85044741 -34.10953224 232.01102122 -38.47311932 227.82422012 C-40.70781582 225.00927068 -41.71882188 222.65585233 -42.31619263 219.10810852 C-41.55194675 213.19249541 -38.64941807 208.83605841 -35.61697388 203.77217102 C-34.45666212 201.78528266 -33.2965038 199.79830469 -32.13650513 197.81123352 C-31.35883789 196.50339905 -31.35883789 196.50339905 -30.56546021 195.16914368 C-29.69377197 193.67326721 -29.69377197 193.67326721 -28.80447388 192.14717102 C-28.39351565 191.58939437 -27.98255743 191.03161772 -27.55914593 190.45693874 C-22.61689362 183.09515196 -23.13016757 175.34505101 -23.22439575 166.83052063 C-23.22412877 165.18702005 -23.22159016 163.54351851 -23.21696472 161.90002441 C-23.21158051 158.37556283 -23.22153507 154.85160399 -23.24345398 151.32720757 C-23.27744347 145.74995323 -23.2732092 140.17312005 -23.26333618 134.59579468 C-23.24770835 122.75866576 -23.27391694 110.92175729 -23.30447388 99.08467102 C-23.3374695 86.30017626 -23.36323651 73.51591881 -23.34059763 60.73138243 C-23.33221926 55.19122579 -23.34796116 49.65182871 -23.38239288 44.11178005 C-23.39887425 40.66205494 -23.39466859 37.21257578 -23.38494682 33.76283455 C-23.38468755 32.16812008 -23.39296266 30.57337689 -23.4105854 28.97875977 C-23.51506833 19.03808703 -22.83659738 12.46165816 -15.85525513 5.08857727 C-15.28162231 4.63353821 -14.7079895 4.17849915 -14.11697388 3.70967102 C-13.53560669 3.23658508 -12.9542395 2.76349915 -12.35525513 2.27607727 C-8.50091528 -0.5297268 -4.58425544 -0.00096927 0 0 Z M-1.80447388 21.14717102 C-1.80447388 72.29717102 -1.80447388 123.44717102 -1.80447388 176.14717102 C68.48552612 176.14717102 138.77552612 176.14717102 211.19552612 176.14717102 C211.19552612 124.99717102 211.19552612 73.84717102 211.19552612 21.14717102 C140.90552612 21.14717102 70.61552612 21.14717102 -1.80447388 21.14717102 Z " fill="#296186" transform="translate(145.80447387695313,380.8528289794922)"/>
<path d="M0 0 C40.26 0 80.52 0 122 0 C124.0039793 5.00994825 125.08912437 9.61294426 126.125 14.875 C126.43824219 16.45341675 126.43824219 16.45341675 126.7578125 18.0637207 C132.48688273 47.57779093 137.0592914 77.3557484 142 107 C117.25 107 92.5 107 67 107 C67 95 67 95 69 92 C71.37516976 92.31124998 73.75013182 92.62396403 76.125 92.9375 C76.79015625 93.02451172 77.4553125 93.11152344 78.140625 93.20117188 C81.19971398 93.6060513 84.22477524 94.04398363 87.25390625 94.63671875 C91.25720925 95.16631644 93.57015626 94.01755514 97 92 C98.05167527 89.42267086 98.05167527 89.42267086 98 87 C97.38253906 87.02320313 96.76507813 87.04640625 96.12890625 87.0703125 C87.44755506 87.25530324 79.65310485 86.77535466 72.78222656 80.93310547 C66.67213356 74.30574705 67.32107072 62.93161123 66.875 54.5 C66.73015616 51.98937343 66.58190118 49.47894054 66.4296875 46.96875 C66.37022949 45.86982422 66.31077148 44.77089844 66.24951172 43.63867188 C66.16246854 41.0240817 66.16246854 41.0240817 65 39 C61.44307323 38.14943055 59.50729422 37.83090193 56 39 C55.00792445 43.14462716 54.86137277 47.05716242 54.82421875 51.3125 C54.80103193 52.73178585 54.77691506 54.15105676 54.75195312 55.5703125 C54.7168125 57.78884096 54.6874589 60.00681253 54.67407227 62.22558594 C54.65855925 64.38022473 54.61835562 66.53328188 54.57421875 68.6875 C54.55963623 69.97011719 54.54505371 71.25273437 54.5300293 72.57421875 C53.91264059 76.56463716 52.81943775 78.16436406 50 81 C42.20686822 86.24537716 34.19027733 87.28436365 25 88 C25.57344937 90.86724686 25.8614515 91.8614515 28 94 C36.86198133 95.14492041 45.44262374 93.12668522 54 91 C56.47247506 96.87212826 56 99.88974627 56 107 C31.58 107 7.16 107 -18 107 C-13.42905405 77.28885135 -13.42905405 77.28885135 -11.375 64.1875 C-10.96599335 61.5768468 -10.55713734 58.96617 -10.1484375 56.35546875 C-9.95338623 55.1125708 -9.75833496 53.86967285 -9.55737305 52.58911133 C-9.2032384 50.30872001 -8.85505327 48.02739065 -8.51489258 45.74487305 C-7.30535961 37.64857347 -5.86338872 29.60911455 -4.34057617 21.56713867 C-3.93213829 19.40917161 -3.52737021 17.25053826 -3.12304688 15.09179688 C-1.14417185 4.5766874 -1.14417185 4.5766874 0 0 Z " fill="#2B6186" transform="translate(189,428)"/>
<path d="M0 0 C10.02375 -0.061875 20.0475 -0.12375 30.375 -0.1875 C35.09369385 -0.22846802 35.09369385 -0.22846802 39.90771484 -0.27026367 C42.42545183 -0.2790327 44.9431931 -0.28667565 47.4609375 -0.29296875 C48.74846924 -0.30831665 50.03600098 -0.32366455 51.36254883 -0.33947754 C62.95551611 -0.34281974 71.87593118 1.6521331 81 9 C87.21919923 15.38286237 88.55402638 22.13204509 88.48266602 30.79077148 C88.18518968 39.50171984 85.37244625 46.89846638 79.3125 53.25 C76.35952381 56 76.35952381 56 74 56 C74 56.66 74 57.32 74 58 C74.99 58.2784375 74.99 58.2784375 76 58.5625 C83.36330278 62.09074925 88.09051331 67.43862216 91 75 C94.0399234 84.1197702 92.48851317 94.01774141 88.40234375 102.484375 C84.30667408 109.8314816 78.50192363 114.3377134 71 118 C48.14688299 124.23266828 23.68778401 121 0 121 C0 81.07 0 41.14 0 0 Z " fill="#2B6489" transform="translate(441,392)"/>
<path d="M0 0 C7.92 0 15.84 0 24 0 C24.01458252 2.47242188 24.02916504 4.94484375 24.04418945 7.4921875 C24.0946196 15.67860667 24.16122952 23.86483731 24.23571491 32.05107117 C24.28036363 37.01238365 24.31963186 41.97361506 24.34643555 46.93505859 C24.37252338 51.7268333 24.4129645 56.51829509 24.46318626 61.30987549 C24.47981796 63.13417659 24.4913552 64.95853177 24.49761391 66.78289795 C24.50729538 69.34648116 24.53540213 71.90927048 24.56762695 74.47265625 C24.56547432 75.59367989 24.56547432 75.59367989 24.5632782 76.73735046 C24.69891758 84.41143449 27.05830174 90.86868576 32.3515625 96.5234375 C37.67709099 101.29369761 43.18959388 101.48715679 50.0703125 101.28125 C57.51025723 100.56701531 62.95100932 97.49094477 68 92 C72.11494725 85.55324931 72.14437331 78.50237485 72.20532227 71.04516602 C72.21522186 70.28336533 72.22512146 69.52156464 72.23532104 68.73667908 C72.26666898 66.24245205 72.29158671 63.74820604 72.31640625 61.25390625 C72.3369989 59.51512687 72.35799595 57.77635223 72.37937927 56.0375824 C72.43436137 51.4789313 72.48387508 46.92023683 72.53222656 42.36151123 C72.5826167 37.70255713 72.63821102 33.0436654 72.69335938 28.38476562 C72.80064875 19.25656191 72.90167621 10.1283047 73 1 C80.59 1 88.18 1 96 1 C96.13595166 13.04880267 96.24586031 25.09708979 96.31087303 37.14648819 C96.34208753 42.74248165 96.38437929 48.3379198 96.45263672 53.93359375 C96.51818218 59.34123892 96.55378023 64.74835245 96.56926346 70.15636444 C96.58028688 72.21193553 96.6018124 74.26747994 96.63438034 76.32282257 C96.84913461 90.44701659 95.92653006 99.96218462 86.6875 111.25 C74.72259736 122.35361588 59.32893462 124.57095609 43.75 124.34375 C31.68360574 123.86492483 20.12879295 119.81670293 11.3046875 111.37890625 C2.60786748 101.9172905 -0.34182927 91.51854582 -0.22705078 78.90014648 C-0.22734283 78.04051804 -0.22763489 77.18088959 -0.22793579 76.29521179 C-0.22655553 73.4870655 -0.21105646 70.67919301 -0.1953125 67.87109375 C-0.19157773 65.91097661 -0.18873295 63.95085759 -0.18673706 61.99073792 C-0.17913718 56.85662593 -0.15952031 51.72262889 -0.1373291 46.58856201 C-0.11679181 41.33965611 -0.10771855 36.09073146 -0.09765625 30.84179688 C-0.0762707 20.56113955 -0.04111859 10.28059736 0 0 Z " fill="#2B6389" transform="translate(558,391)"/>
<path d="M0 0 C30.36 0 60.72 0 92 0 C92 6.6 92 13.2 92 20 C91.505 20.495 91.505 20.495 91 21 C80.11 21 69.22 21 58 21 C58 54 58 87 58 121 C50.08 121 42.16 121 34 121 C34 88 34 55 34 21 C22.78 21 11.56 21 0 21 C0 14.07 0 7.14 0 0 Z " fill="#2B6388" transform="translate(675,392)"/>
<path d="M0 0 C29.7 0 59.4 0 90 0 C90 6.93 90 13.86 90 21 C79.11 21 68.22 21 57 21 C57 54 57 87 57 121 C49.08 121 41.16 121 33 121 C33 88 33 55 33 21 C22.11 21 11.22 21 0 21 C0 14.07 0 7.14 0 0 Z " fill="#2A5E80" transform="translate(784,392)"/>
<path d="M0 0 C6.28187962 4.06474564 9.28899152 9.82365789 11.6171875 16.8671875 C13.5031195 27.37452292 12.42826245 37.99076801 6.6796875 47.08984375 C3.27519342 51.48964074 -0.55797903 54.64547062 -6 56 C-13.03810691 56.88997997 -21.36553812 57.63040617 -27.6875 53.9375 C-29.4296875 52.54296875 -29.4296875 52.54296875 -31 51 C-31.83917969 50.22076172 -31.83917969 50.22076172 -32.6953125 49.42578125 C-39.67694809 42.19118785 -40.48888694 33.95900739 -40.421875 24.31347656 C-40.13670121 15.82955632 -37.66916391 8.70925083 -31.7421875 2.47265625 C-22.8398289 -5.05243162 -10.11605578 -5.14676522 0 0 Z " fill="#1C6392" transform="translate(717,551)"/>
<path d="M0 0 C3.63 0 7.26 0 11 0 C11.98704589 4.08737741 12.96523715 8.17674981 13.93579102 12.26806641 C14.26613357 13.65534439 14.59875761 15.04208139 14.93383789 16.42822266 C16.82247107 24.24812387 18.53984473 31.93827195 19 40 C19.66 40 20.32 40 21 40 C21.12238037 38.84048828 21.24476074 37.68097656 21.37084961 36.48632812 C21.89822076 32.28581662 22.88469606 28.27898344 24.06640625 24.21875 C24.26475571 23.51979614 24.46310516 22.82084229 24.66746521 22.10070801 C25.29365427 19.89886142 25.92791617 17.69944005 26.5625 15.5 C26.99207574 13.99494549 27.42111706 12.48973833 27.84960938 10.984375 C28.89357785 7.32112532 29.94478593 3.66002542 31 0 C34.3 0 37.6 0 41 0 C43.54408611 7.33570842 45.62695026 14.74884715 47.625 22.25 C47.93695312 23.40757812 48.24890625 24.56515625 48.5703125 25.7578125 C49.84063814 30.49963147 51.036605 35.18302499 52 40 C54.97 26.8 57.94 13.6 61 0 C64.96 0 68.92 0 73 0 C68.21843228 19.39523407 63.20467177 38.71437724 58 58 C54.37 58 50.74 58 47 58 C37 23.6 37 23.6 37 18 C36.34 18 35.68 18 35 18 C34.9175 19.01449219 34.835 20.02898438 34.75 21.07421875 C33.90661419 27.81388104 31.84537652 34.29350687 30 40.8125 C29.62709958 42.14764563 29.25469976 43.48293119 28.8828125 44.81835938 C26.21552579 54.35342262 26.21552579 54.35342262 25 58 C21.37 58 17.74 58 14 58 C12.1708145 50.8816746 10.34467075 43.76258565 8.52388 36.64210796 C7.67830471 33.33586469 6.8313977 30.0299745 5.98144531 26.72485352 C5.00449661 22.92565341 4.03334325 19.12498384 3.0625 15.32421875 C2.75626709 14.13664474 2.45003418 12.94907074 2.13452148 11.72550964 C1.85423096 10.62459488 1.57394043 9.52368011 1.28515625 8.3894043 C1.03644775 7.41899704 0.78773926 6.44858978 0.53149414 5.44877625 C0 3 0 3 0 0 Z " fill="#1C6493" transform="translate(597,549)"/>
<path d="M0 0 C29 0 29 0 37 4 C41.80269661 9.04898874 42.40516824 13.38630162 42.3515625 20.140625 C41.55892675 26.58739578 37.43883106 30.6003752 33 35 C33.33322266 35.62567871 33.66644531 36.25135742 34.00976562 36.89599609 C35.51077093 39.72009034 37.00545481 42.54748208 38.5 45.375 C39.02464844 46.35984375 39.54929687 47.3446875 40.08984375 48.359375 C40.58613281 49.30039062 41.08242188 50.24140625 41.59375 51.2109375 C42.28500977 52.51490479 42.28500977 52.51490479 42.99023438 53.84521484 C44 56 44 56 44 58 C40.04 58 36.08 58 32 58 C30.53504663 55.46195322 29.07795678 52.91990283 27.625 50.375 C27.2125 49.66214844 26.8 48.94929687 26.375 48.21484375 C24.10508926 44.22419422 22.27534989 40.44270238 21 36 C17.7 36 14.4 36 11 36 C11 43.26 11 50.52 11 58 C7.37 58 3.74 58 0 58 C0 38.86 0 19.72 0 0 Z " fill="#1C6391" transform="translate(740,549)"/>
<path d="M0 0 C10 0 10 0 12.12109375 1.58984375 C12.55550781 2.36457031 12.98992187 3.13929688 13.4375 3.9375 C13.98277344 4.845 14.52804687 5.7525 15.08984375 6.6875 C16.03537109 8.3271875 16.03537109 8.3271875 17 10 C18.33677884 12.09388791 19.6993063 14.16972432 21.06274414 16.24633789 C25.78600882 23.44717031 30.37684243 30.7350381 35 38 C35.33 25.46 35.66 12.92 36 0 C39.3 0 42.6 0 46 0 C46 19.14 46 38.28 46 58 C36 58 36 58 33.32348633 55.69604492 C32.66630615 54.63490479 32.00912598 53.57376465 31.33203125 52.48046875 C30.96325363 51.90726395 30.59447601 51.33405914 30.21452332 50.7434845 C29.04609981 48.91066361 27.92968543 47.05189544 26.8125 45.1875 C26.05339518 43.9777628 25.29104653 42.77005474 24.52539062 41.56445312 C23.09220069 39.29654964 21.68400478 37.01902202 20.28833008 34.72729492 C17.25171552 29.78117367 14.1159665 24.89651879 11 20 C10.67 32.54 10.34 45.08 10 58 C6.7 58 3.4 58 0 58 C0 38.86 0 19.72 0 0 Z " fill="#1D6696" transform="translate(440,549)"/>
<path d="M0 0 C3.63 0 7.26 0 11 0 C11.33 7.92 11.66 15.84 12 24 C14.02125 21.525 16.0425 19.05 18.125 16.5 C18.74906738 15.73751953 19.37313477 14.97503906 20.01611328 14.18945312 C20.52899902 13.55974609 21.04188477 12.93003906 21.5703125 12.28125 C22.14539551 11.58064453 22.72047852 10.88003906 23.31298828 10.15820312 C25.03066309 8.01793298 25.03066309 8.01793298 26.52685547 5.70117188 C30.22410649 0.17674112 30.22410649 0.17674112 34.4296875 -0.78125 C35.56664062 -0.6884375 36.70359375 -0.595625 37.875 -0.5 C39.02742187 -0.4278125 40.17984375 -0.355625 41.3671875 -0.28125 C42.67042969 -0.14203125 42.67042969 -0.14203125 44 0 C40.78080838 5.05532314 37.12919966 9.63445622 33.3125 14.25 C32.14022722 15.67047386 30.96957252 17.09228511 29.80078125 18.515625 C29.28684814 19.13727539 28.77291504 19.75892578 28.2434082 20.39941406 C26.92243795 21.99216882 26.92243795 21.99216882 26 24 C26.98229174 26.09867237 26.98229174 26.09867237 28.5 28.40234375 C29.05469971 29.28817139 29.60939941 30.17399902 30.1809082 31.08666992 C31.08135864 32.49783081 31.08135864 32.49783081 32 33.9375 C32.59707764 34.88794189 33.19415527 35.83838379 33.80932617 36.81762695 C37.46291052 42.62353352 41.15225871 48.4079085 44.92578125 54.13671875 C46 56 46 56 46 58 C41.85241037 58.61294428 38.13121176 58.80647081 34 58 C30.70476134 55.25396778 29.01399159 51.74221411 27 48 C26.20020994 46.66085572 25.39243928 45.32645603 24.578125 43.99609375 C22.34841306 40.35174532 20.16550914 36.68283867 18 33 C17.195625 33.804375 16.39125 34.60875 15.5625 35.4375 C14.375 36.625 13.1875 37.8125 12 39 C11.84379445 40.41327947 11.74943827 41.8335459 11.68359375 43.25390625 C11.64169922 44.10791016 11.59980469 44.96191406 11.55664062 45.84179688 C11.49766602 47.18854492 11.49766602 47.18854492 11.4375 48.5625 C11.39431641 49.46419922 11.35113281 50.36589844 11.30664062 51.29492188 C11.20022016 53.52975156 11.09957519 55.76485486 11 58 C7.37 58 3.74 58 0 58 C0 38.86 0 19.72 0 0 Z " fill="#1B6290" transform="translate(795,549)"/>
<path d="M0 0 C4.77264575 2.4656027 7.78262143 5.20196162 10.2265625 10.08984375 C10.59322975 11.74949553 10.93247484 13.41580631 11.2265625 15.08984375 C9.29096937 15.22488513 7.3526905 15.32185504 5.4140625 15.40234375 C4.33511719 15.46035156 3.25617187 15.51835938 2.14453125 15.578125 C1.18160156 15.41699219 0.21867188 15.25585938 -0.7734375 15.08984375 C-2.47265625 12.6328125 -2.47265625 12.6328125 -3.7734375 10.08984375 C-7.48307457 8.85329806 -10.91772828 8.53902815 -14.7734375 9.08984375 C-17.40060327 10.54982362 -17.40060327 10.54982362 -18.7734375 13.08984375 C-19.5234375 16.08984375 -19.5234375 16.08984375 -18.7734375 19.08984375 C-17.08409795 21.66629641 -17.08409795 21.66629641 -13.7734375 23.08984375 C-10.77676489 23.44669286 -7.79412774 23.59906542 -4.78125 23.765625 C1.07883877 24.39729691 4.77926243 26.88376036 9.2265625 30.58984375 C12.05639684 34.38220678 11.9188563 38.53750691 11.703125 43.11328125 C10.84244437 48.48900782 8.70088797 51.84509487 4.7109375 55.46484375 C0.05244071 58.4865714 -5.0148423 58.46295218 -10.3984375 58.52734375 C-11.49140137 58.5428125 -11.49140137 58.5428125 -12.60644531 58.55859375 C-17.36104439 58.48061399 -20.6482866 57.66349984 -24.7734375 55.08984375 C-28.84750822 50.830588 -31.7734375 47.11003582 -31.7734375 41.08984375 C-28.1434375 41.08984375 -24.5134375 41.08984375 -20.7734375 41.08984375 C-20.5053125 42.05921875 -20.2371875 43.02859375 -19.9609375 44.02734375 C-19.5690625 45.03796875 -19.1771875 46.04859375 -18.7734375 47.08984375 C-15.74037637 48.10086413 -13.51403511 48.28809725 -10.3359375 48.33984375 C-8.91474609 48.37851562 -8.91474609 48.37851562 -7.46484375 48.41796875 C-4.30919297 48.033245 -2.97928962 47.36222969 -0.7734375 45.08984375 C-0.14620542 43.15558889 -0.14620542 43.15558889 -0.2734375 41.08984375 C-0.263125 40.40921875 -0.2528125 39.72859375 -0.2421875 39.02734375 C-0.64733754 36.96425958 -0.64733754 36.96425958 -2.34375 35.3984375 C-6.60125776 33.10540679 -11.29681574 33.22658332 -16.046875 32.8125 C-22.34096532 31.59194789 -26.1804312 28.27974174 -29.7734375 23.08984375 C-31.43370211 18.10904992 -31.37247175 13.78710746 -29.6484375 8.90234375 C-22.952746 -1.1411935 -11.23273842 -3.68623669 0 0 Z " fill="#1B6393" transform="translate(877.7734375,548.91015625)"/>
<path d="M0 0 C4.55425881 -0.09231606 9.1052156 -0.17179505 13.65966797 -0.21972656 C15.20567887 -0.23972503 16.75161527 -0.26693331 18.29736328 -0.30175781 C34.27597399 -0.65248264 34.27597399 -0.65248264 41 4 C44.72692944 7.72692944 45.31617969 10.89674847 45.5625 16 C45.42285487 19.75645408 45.23728045 22.52404834 42.9375 25.5625 C36.41053839 30.97848942 29.6247436 32.1352728 21.38671875 32.09765625 C19.70002075 32.09390991 19.70002075 32.09390991 17.97924805 32.09008789 C16.56297119 32.08098389 15.14669434 32.07187988 13.6875 32.0625 C9.170625 32.041875 4.65375 32.02125 0 32 C0 21.44 0 10.88 0 0 Z " fill="#000A18" transform="translate(464,461)"/>
<path d="M0 0 C1.4954343 -0.01250897 2.99084647 -0.02798076 4.48622131 -0.04626465 C7.61337792 -0.07143714 10.73708219 -0.05608026 13.86401367 -0.01269531 C17.85635383 0.038782 21.83860047 -0.01800828 25.82999325 -0.10639191 C28.91663222 -0.16139584 32.00088951 -0.15479434 35.0878315 -0.13047791 C36.55779051 -0.12685836 38.02794279 -0.142832 39.49744987 -0.17945862 C44.15178039 -0.2762196 48.29771267 -0.1039123 52.72265625 1.53125 C57.35730868 6.39118114 60.72265625 11.64494554 60.72265625 18.53125 C33.00265625 18.53125 5.28265625 18.53125 -23.27734375 18.53125 C-20.78624268 3.58464359 -14.27111792 -0.18995503 0 0 Z " fill="#000918" transform="translate(232.27734375,583.46875)"/>
<path d="M0 0 C11.88 0 23.76 0 36 0 C36 2.97 36 5.94 36 9 C27.75 9 19.5 9 11 9 C11 13.95 11 18.9 11 24 C18.26 24 25.52 24 33 24 C33 26.97 33 29.94 33 33 C25.74 33 18.48 33 11 33 C11 38.28 11 43.56 11 49 C19.25 49 27.5 49 36 49 C36 51.97 36 54.94 36 58 C24.12 58 12.24 58 0 58 C0 38.86 0 19.72 0 0 Z " fill="#1D5D87" transform="translate(500,549)"/>
<path d="M0 0 C4.12670505 -0.09238892 8.25073905 -0.17184732 12.37792969 -0.21972656 C13.77844473 -0.2397063 15.17887782 -0.2669002 16.57910156 -0.30175781 C31.18475347 -0.6559605 31.18475347 -0.6559605 38 4 C41.20544877 8.40749205 41.78289664 12.71015781 41 18 C39.38879472 22.18913372 37.4323836 25.10392634 34 28 C30.46173745 29.17942085 27.65851274 29.11289189 23.92578125 29.09765625 C22.90003242 29.09553383 22.90003242 29.09553383 21.8535614 29.09336853 C19.67316278 29.08777876 17.49286749 29.07522822 15.3125 29.0625 C13.83268378 29.05748367 12.35286594 29.052921 10.87304688 29.04882812 C7.24862624 29.0386643 3.62442856 29.0190871 0 29 C0 19.43 0 9.86 0 0 Z " fill="#000B19" transform="translate(464,412)"/>
<path d="M0 0 C4.27851777 1.47965406 7.05588116 3.60689437 9.375 7.5 C12.73443352 14.73570296 13.10728486 22.1513242 10.75 29.8125 C8.88448658 34.79306885 6.45025946 38.03316036 2 41 C-2.88532944 41.65036893 -7.43983217 41.73029132 -11.9375 39.625 C-18.18072738 31.67907424 -19.16354877 22.87253498 -18 13 C-16.42634696 7.54691353 -13.77664459 4.14252934 -9 1 C-5.88111322 -0.55944339 -3.4545855 -0.28316275 0 0 Z " fill="#000917" transform="translate(706,557)"/>
<path d="M0 0 C14.85 0 29.7 0 45 0 C45 2.97 45 5.94 45 9 C39.39 9 33.78 9 28 9 C28 25.17 28 41.34 28 58 C24.7 58 21.4 58 18 58 C18 41.83 18 25.66 18 9 C12.06 9 6.12 9 0 9 C0 6.03 0 3.06 0 0 Z " fill="#1E699B" transform="translate(544,549)"/>
<path d="M0 0 C10.89 0 21.78 0 33 0 C33 33 33 66 33 100 C40.92 100 48.84 100 57 100 C57 67 57 34 57 0 C68.22 0 79.44 0 91 0 C90.67 0.66 90.34 1.32 90 2 C79.77 2 69.54 2 59 2 C59.01571045 6.43735596 59.01571045 6.43735596 59.03173828 10.96435547 C59.06482205 20.71929432 59.08694725 30.4742356 59.10362434 40.22921562 C59.11407834 46.14584181 59.12826694 52.0624107 59.15087891 57.97900391 C59.17254975 63.68481131 59.18455644 69.39056347 59.18975449 75.09640884 C59.19346062 77.27739456 59.20069737 79.45837713 59.21146011 81.63933945 C59.22589852 84.6852455 59.22798116 87.73092091 59.22705078 90.77685547 C59.23424133 91.68603729 59.24143188 92.59521912 59.24884033 93.5319519 C59.22810432 99.77189568 59.22810432 99.77189568 57 102 C54.6015625 102.25878906 54.6015625 102.25878906 51.625 102.265625 C50.55765625 102.26820313 49.4903125 102.27078125 48.390625 102.2734375 C47.27171875 102.26570312 46.1528125 102.25796875 45 102.25 C43.88109375 102.25773438 42.7621875 102.26546875 41.609375 102.2734375 C40.54203125 102.27085937 39.4746875 102.26828125 38.375 102.265625 C36.90160156 102.26224121 36.90160156 102.26224121 35.3984375 102.25878906 C33 102 33 102 31 100 C30.81151528 96.89582582 30.74839546 93.88146099 30.77294922 90.77685547 C30.77265717 89.8207135 30.77236511 88.86457153 30.77206421 87.87945557 C30.77346124 84.70860828 30.78904001 81.53799391 30.8046875 78.3671875 C30.8084163 76.17286304 30.8112639 73.97853692 30.81326294 71.78421021 C30.82090985 66.00062486 30.84056741 60.21713951 30.8626709 54.43359375 C30.88310657 48.53517001 30.89225977 42.63673016 30.90234375 36.73828125 C30.92381231 25.15881016 30.95796098 13.57941339 31 2 C29.8663501 2.00580078 28.7327002 2.01160156 27.56469727 2.01757812 C26.04443401 2.02227211 24.5241703 2.02682166 23.00390625 2.03125 C22.26064087 2.03543945 21.51737549 2.03962891 20.75158691 2.04394531 C13.79895042 2.05906385 6.92638763 1.61470318 0 1 C0 0.67 0 0.34 0 0 Z " fill="#000003" transform="translate(784,413)"/>
<path d="M0 0 C29.7 0 59.4 0 90 0 C90 6.93 90 13.86 90 21 C79.44 21 68.88 21 58 21 C58 20.67 58 20.34 58 20 C68.23 20 78.46 20 89 20 C89 13.73 89 7.46 89 1 C60.29 1 31.58 1 2 1 C2 6.94 2 12.88 2 19 C5.7434375 18.9690625 5.7434375 18.9690625 9.5625 18.9375 C17.71869239 18.91205414 25.88893076 19.07725195 34 20 C35.93224465 21.93224465 35.12018438 24.83610389 35.12442017 27.40708923 C35.11902725 28.79028099 35.11902725 28.79028099 35.11352539 30.20141602 C35.11367142 31.16716553 35.11381744 32.13291504 35.1139679 33.12792969 C35.11326834 36.33661099 35.10547397 39.54523503 35.09765625 42.75390625 C35.09579222 44.97208118 35.09436825 47.19025652 35.09336853 49.40843201 C35.08954216 55.25940071 35.07971086 61.11034477 35.06866455 66.96130371 C35.05845299 72.92667304 35.05387146 78.89204633 35.04882812 84.85742188 C35.03808869 96.57162718 35.02049093 108.28580769 35 120 C41.93 120 48.86 120 56 120 C56 87.66 56 55.32 56 22 C56.33 22 56.66 22 57 22 C57 54.67 57 87.34 57 121 C49.08 121 41.16 121 33 121 C33 88 33 55 33 21 C22.11 21 11.22 21 0 21 C0 14.07 0 7.14 0 0 Z " fill="#1E7EBC" transform="translate(784,392)"/>
<path d="M0 0 C1.38666276 -0.00445668 1.38666276 -0.00445668 2.80133891 -0.0090034 C5.91816643 -0.0177178 9.03495567 -0.01920096 12.15179443 -0.02069092 C14.37877994 -0.02531718 16.60576464 -0.03034158 18.83274841 -0.03573608 C24.89688874 -0.04888124 30.96101798 -0.05530925 37.02517033 -0.05974674 C40.811284 -0.06267428 44.59739463 -0.0667785 48.38350677 -0.07125092 C58.86461349 -0.08336332 69.34571841 -0.09374398 79.82683182 -0.09712601 C80.49789996 -0.09734557 81.1689681 -0.09756514 81.86037163 -0.09779136 C82.53305587 -0.09800964 83.20574011 -0.09822791 83.89880872 -0.09845281 C85.26194588 -0.09889627 86.62508305 -0.09934284 87.98822021 -0.09979248 C88.6643849 -0.10001391 89.34054959 -0.10023534 90.03720412 -0.10046348 C100.99058341 -0.10441047 111.94389614 -0.12186054 122.89724973 -0.145152 C134.1409665 -0.16886799 145.38465103 -0.18107003 156.62839675 -0.18249393 C162.94208469 -0.18354335 169.25567881 -0.18948019 175.56934357 -0.20731354 C181.50857269 -0.22376217 187.44763713 -0.22596527 193.38688087 -0.21717453 C195.5677694 -0.21640242 197.74866665 -0.22076973 199.929533 -0.23063278 C202.90528639 -0.24330216 205.88045217 -0.23750253 208.85620117 -0.22705078 C209.72060515 -0.23510719 210.58500912 -0.24316359 211.47560716 -0.25146413 C216.47207356 -0.21038085 219.8016815 0.46372999 224.18206787 3.14044189 C223.52206787 3.47044189 222.86206787 3.80044189 222.18206787 4.14044189 C221.19206787 3.64544189 221.19206787 3.64544189 220.18206787 3.14044189 C217.19047942 3.03995876 214.22201821 3.00150577 211.23005676 3.00672913 C210.29124757 3.00446357 209.35243837 3.00219801 208.38518041 2.9998638 C205.21988907 2.99350233 202.05464031 2.99435454 198.88934326 2.99517822 C196.62793421 2.99218808 194.36652566 2.98878589 192.1051178 2.98500061 C185.94820364 2.97614199 179.79130336 2.97382173 173.63438344 2.97318482 C168.50236152 2.97223731 163.37034287 2.96856086 158.2383222 2.96501273 C146.82734996 2.95732729 135.4163868 2.95434475 124.00541265 2.95501808 C123.32032264 2.95505804 122.63523263 2.95509799 121.92938232 2.95513916 C121.24345886 2.95518004 120.5575354 2.95522092 119.85082638 2.95526304 C108.73054017 2.95566963 97.61028781 2.94609761 86.4900114 2.93200079 C75.08019411 2.9176507 63.67040019 2.91091316 52.26057237 2.91159457 C45.85142945 2.91185014 39.44232481 2.90896644 33.03318977 2.89841652 C27.00781437 2.88876959 20.98251413 2.88863285 14.95713615 2.89593315 C12.74112718 2.89698322 10.5251136 2.89459126 8.30911255 2.88857269 C5.29300613 2.88090934 2.27716295 2.88545984 -0.73893738 2.89320374 C-1.62375272 2.88806017 -2.50856807 2.88291661 -3.420196 2.87761718 C-8.41559622 2.89452338 -8.41559622 2.89452338 -12.81793213 5.14044189 C-12.48793213 5.80044189 -12.15793213 6.46044189 -11.81793213 7.14044189 C-12.47793213 7.14044189 -13.13793213 7.14044189 -13.81793213 7.14044189 C-14.47793213 8.46044189 -15.13793213 9.78044189 -15.81793213 11.14044189 C-16.47793213 10.81044189 -17.13793213 10.48044189 -17.81793213 10.14044189 C-18.80793213 12.12044189 -19.79793213 14.10044189 -20.81793213 16.14044189 C-21.14793213 15.15044189 -21.47793213 14.16044189 -21.81793213 13.14044189 C-16.79670321 3.72563766 -10.40353553 -0.010322 0 0 Z " fill="#1F7BB5" transform="translate(145.81793212890625,380.85955810546875)"/>
<path d="M0 0 C11.88 0 23.76 0 36 0 C36 2.97 36 5.94 36 9 C27.75 9 19.5 9 11 9 C11 13.95 11 18.9 11 24 C18.26 24 25.52 24 33 24 C33 26.97 33 29.94 33 33 C26.07 33 19.14 33 12 33 C12 32.67 12 32.34 12 32 C18.6 32 25.2 32 32 32 C32 29.69 32 27.38 32 25 C31.3387915 25.00523682 30.67758301 25.01047363 29.99633789 25.01586914 C27.01840149 25.03657656 24.04048018 25.04964012 21.0625 25.0625 C20.02158203 25.07087891 18.98066406 25.07925781 17.90820312 25.08789062 C16.42416992 25.09272461 16.42416992 25.09272461 14.91015625 25.09765625 C13.53549194 25.10551147 13.53549194 25.10551147 12.13305664 25.11352539 C10 25 10 25 9 24 C8.90024968 21.48863896 8.86117817 19.01096585 8.875 16.5 C8.87113281 15.79746094 8.86726563 15.09492187 8.86328125 14.37109375 C8.87338622 9.12661378 8.87338622 9.12661378 10 8 C11.78071246 7.91273777 13.5648314 7.89300959 15.34765625 7.90234375 C16.42724609 7.90556641 17.50683594 7.90878906 18.61914062 7.91210938 C20.32360352 7.92467773 20.32360352 7.92467773 22.0625 7.9375 C23.77276367 7.94426758 23.77276367 7.94426758 25.51757812 7.95117188 C28.34510351 7.96300253 31.1725264 7.9794859 34 8 C34 5.69 34 3.38 34 1 C23.44 1 12.88 1 2 1 C2 19.15 2 37.3 2 56 C12.56 56 23.12 56 34 56 C34 54.02 34 52.04 34 50 C32.91730835 50.00785522 32.91730835 50.00785522 31.81274414 50.01586914 C28.56267151 50.03657358 25.31261272 50.04963918 22.0625 50.0625 C20.35803711 50.07506836 20.35803711 50.07506836 18.61914062 50.08789062 C17.53955078 50.09111328 16.45996094 50.09433594 15.34765625 50.09765625 C13.84730835 50.10551147 13.84730835 50.10551147 12.31665039 50.11352539 C10 50 10 50 9 49 C8.92680379 46.30345146 8.90757463 43.63308542 8.9375 40.9375 C8.94201172 40.17888672 8.94652344 39.42027344 8.95117188 38.63867188 C8.9629932 36.75908129 8.98092922 34.87953101 9 33 C9.66 33.33 10.32 33.66 11 34 C11 38.95 11 43.9 11 49 C19.25 49 27.5 49 36 49 C36 51.97 36 54.94 36 58 C24.12 58 12.24 58 0 58 C0 38.86 0 19.72 0 0 Z " fill="#1C79B5" transform="translate(500,549)"/>
<path d="M0 0 C2.371875 -0.103125 4.74375 -0.20625 7.1875 -0.3125 C7.92508545 -0.35802002 8.6626709 -0.40354004 9.42260742 -0.45043945 C13.29561021 -0.53150838 14.87777992 -0.09509594 17.95703125 2.30078125 C20 5 20 5 20.5 8.5 C19.98103819 12.13273269 19.21388255 14.10492282 17 17 C13.93618406 18.53190797 10.73034134 18.10243613 7.375 18.0625 C4.94125 18.041875 2.5075 18.02125 0 18 C0 12.06 0 6.12 0 0 Z " fill="#000A19" transform="translate(751,558)"/>
<path d="M0 0 C0.33 0 0.66 0 1 0 C1 19.47 1 38.94 1 59 C12.88 59 24.76 59 37 59 C37 56.03 37 53.06 37 50 C28.75 50 20.5 50 12 50 C12 44.72 12 39.44 12 34 C18.93 34 25.86 34 33 34 C33 34.66 33 35.32 33 36 C26.73 36 20.46 36 14 36 C14 39.96 14 43.92 14 48 C15.64871094 47.98839844 17.29742188 47.97679687 18.99609375 47.96484375 C21.14322804 47.95546762 23.29036355 47.94636723 25.4375 47.9375 C26.52611328 47.92912109 27.61472656 47.92074219 28.73632812 47.91210938 C29.77080078 47.90888672 30.80527344 47.90566406 31.87109375 47.90234375 C32.82943115 47.89710693 33.78776855 47.89187012 34.77514648 47.88647461 C37 48 37 48 38 49 C38.09851171 50.83115883 38.12972629 52.66619933 38.125 54.5 C38.12886719 56.00046875 38.12886719 56.00046875 38.1328125 57.53125 C38 60 38 60 37 61 C34.35713726 61.11336626 31.74138544 61.16417761 29.09765625 61.16796875 C28.30475693 61.17129715 27.5118576 61.17462555 26.69493103 61.17805481 C25.01448142 61.18312726 23.33402171 61.18546304 21.65356445 61.18530273 C19.07681741 61.18748786 16.50049924 61.20563609 13.92382812 61.22460938 C12.2942723 61.22754345 10.66471444 61.22952815 9.03515625 61.23046875 C7.87416161 61.24124702 7.87416161 61.24124702 6.68971252 61.25224304 C1.22882253 61.22882253 1.22882253 61.22882253 -1 59 C-1.24723816 56.5643158 -1.24723816 56.5643158 -1.24291992 53.46459961 C-1.24599655 52.30677475 -1.24907318 51.14894989 -1.25224304 49.95603943 C-1.24505753 48.70081985 -1.23787201 47.44560028 -1.23046875 46.15234375 C-1.23001053 44.87017471 -1.22955231 43.58800568 -1.2290802 42.26698303 C-1.22751538 39.55252676 -1.21922513 36.83820239 -1.20581055 34.1237793 C-1.1888037 30.6375801 -1.18499668 27.1515257 -1.18575573 23.66528988 C-1.1854191 20.34845496 -1.17658537 17.03166794 -1.16796875 13.71484375 C-1.16685593 12.45759995 -1.1657431 11.20035614 -1.16459656 9.90501404 C-1.15821671 8.75034134 -1.15183685 7.59566864 -1.14526367 6.40600586 C-1.13954597 4.87283974 -1.13954597 4.87283974 -1.13371277 3.30870056 C-1 1 -1 1 0 0 Z " fill="#000105" transform="translate(499,548)"/>
<path d="M0 0 C1.92682617 -0.01836914 1.92682617 -0.01836914 3.89257812 -0.03710938 C5.13072266 -0.03904297 6.36886719 -0.04097656 7.64453125 -0.04296875 C9.3457312 -0.04913208 9.3457312 -0.04913208 11.08129883 -0.05541992 C14.18641931 0.18741548 16.3862812 0.86718239 19.1875 2.1875 C15.55066817 3.35648166 12.24915462 3.21624952 8.453125 3.06640625 C7.28555664 3.02330322 6.11798828 2.9802002 4.91503906 2.93579102 C2.69865723 2.84382446 2.69865723 2.84382446 0.4375 2.75 C-4.265 2.564375 -8.9675 2.37875 -13.8125 2.1875 C-13.8125 21.3275 -13.8125 40.4675 -13.8125 60.1875 C-10.1825 60.1875 -6.5525 60.1875 -2.8125 60.1875 C-2.8125 52.9275 -2.8125 45.6675 -2.8125 38.1875 C0.4875 38.1875 3.7875 38.1875 7.1875 38.1875 C8.21791513 40.14080868 9.2365893 42.10031528 10.25 44.0625 C10.81847656 45.15304687 11.38695312 46.24359375 11.97265625 47.3671875 C12.37355469 48.29789063 12.77445313 49.22859375 13.1875 50.1875 C12.8575 50.8475 12.5275 51.5075 12.1875 52.1875 C11.18216333 50.56579621 10.18338093 48.94002763 9.1875 47.3125 C8.630625 46.40757812 8.07375 45.50265625 7.5 44.5703125 C6.1875 42.1875 6.1875 42.1875 6.1875 40.1875 C3.8775 40.1875 1.5675 40.1875 -0.8125 40.1875 C-0.8125 47.1175 -0.8125 54.0475 -0.8125 61.1875 C-3.41429663 62.48839831 -5.4094188 62.35590078 -8.3125 62.375 C-9.2921875 62.38917969 -10.271875 62.40335938 -11.28125 62.41796875 C-13.8125 62.1875 -13.8125 62.1875 -15.8125 60.1875 C-16.05300903 57.7071228 -16.05300903 57.7071228 -16.03955078 54.54443359 C-16.03939972 53.36336029 -16.03924866 52.18228699 -16.03909302 50.96542358 C-16.02877045 49.68519318 -16.01844788 48.40496277 -16.0078125 47.0859375 C-16.0049826 45.77920074 -16.00215271 44.47246399 -15.99923706 43.12612915 C-15.99159776 39.65067919 -15.9719469 36.17539617 -15.9498291 32.70001221 C-15.92937696 29.15419778 -15.92023671 25.6083564 -15.91015625 22.0625 C-15.88870116 15.10409805 -15.85456173 8.14580704 -15.8125 1.1875 C-11.27807648 -1.07971176 -4.97823788 0.0024755 0 0 Z " fill="#000308" transform="translate(753.8125,546.8125)"/>
<path d="M0 0 C0.99128906 -0.00257813 1.98257812 -0.00515625 3.00390625 -0.0078125 C5.4375 0.125 5.4375 0.125 6.4375 1.125 C6.54178875 2.95527172 6.57604374 4.78957455 6.58276367 6.62280273 C6.58914352 7.79749619 6.59552338 8.97218964 6.60209656 10.18247986 C6.60320938 11.46159744 6.6043222 12.74071503 6.60546875 14.05859375 C6.60879715 15.36200211 6.61212555 16.66541046 6.61555481 18.00831604 C6.621552 20.77158435 6.62339412 23.53482135 6.62280273 26.2980957 C6.62270109 29.84368473 6.63635231 33.38907357 6.65357494 36.93461514 C6.66735013 40.30927799 6.66678323 43.68390309 6.66796875 47.05859375 C6.67515427 48.3356871 6.68233978 49.61278046 6.68974304 50.92857361 C6.68666641 52.10641922 6.68358978 53.28426483 6.68041992 54.49780273 C6.68184494 55.53847397 6.68326996 56.5791452 6.68473816 57.65135193 C6.4375 60.125 6.4375 60.125 4.4375 62.125 C2.125 62.42578125 2.125 62.42578125 -0.5625 62.4375 C-1.449375 62.45425781 -2.33625 62.47101562 -3.25 62.48828125 C-4.013125 62.36839844 -4.77625 62.24851562 -5.5625 62.125 C-6.2225 61.135 -6.8825 60.145 -7.5625 59.125 C-3.6025 59.455 0.3575 59.785 4.4375 60.125 C4.4375 40.985 4.4375 21.845 4.4375 2.125 C1.1375 2.125 -2.1625 2.125 -5.5625 2.125 C-5.5625 14.995 -5.5625 27.865 -5.5625 41.125 C-8.5625 38.125 -8.5625 38.125 -8.8112793 34.38793945 C-8.76888942 32.83754091 -8.70962561 31.28754466 -8.63671875 29.73828125 C-8.61027786 28.92127243 -8.58383698 28.10426361 -8.55659485 27.26249695 C-8.46883415 24.65342093 -8.35968662 22.04573733 -8.25 19.4375 C-8.18674082 17.66866966 -8.12487477 15.89978891 -8.06445312 14.13085938 C-7.91329406 9.79482246 -7.74295018 5.45991273 -7.5625 1.125 C-4.93920316 -0.18664842 -2.92551375 -0.00762846 0 0 Z " fill="#00060B" transform="translate(481.5625,546.875)"/>
<path d="M0 0 C1.40782678 -0.00384491 1.40782678 -0.00384491 2.84409451 -0.0077675 C5.99651722 -0.01271829 9.14846353 0.00380912 12.30084229 0.02018738 C14.55756112 0.02103337 16.81428079 0.02055906 19.07099915 0.01885986 C25.20493618 0.0179974 31.33869802 0.03566397 37.47259426 0.05658174 C43.88011734 0.07530659 50.28764421 0.07709567 56.69519043 0.08065796 C67.45228693 0.08892969 78.20930667 0.10768178 88.96636963 0.13444519 C100.04611896 0.16198277 111.1258508 0.18321782 122.20562744 0.19596863 C122.88859853 0.1967568 123.57156963 0.19754497 124.27523682 0.19835702 C127.70150648 0.20227214 131.12777628 0.20606326 134.55404615 0.20979273 C162.97782723 0.24089224 191.40153834 0.29395422 219.82525635 0.36076355 C219.82525635 0.69076355 219.82525635 1.02076355 219.82525635 1.36076355 C218.6572027 1.3640737 217.48914906 1.36738384 216.28569984 1.3707943 C188.58109617 1.44974997 160.87654095 1.53894617 133.17201165 1.64081516 C129.76476016 1.65333458 126.35750835 1.66576727 122.95025635 1.67814636 C122.27191142 1.68061236 121.59356648 1.68307835 120.89466564 1.68561907 C109.89970201 1.72538217 98.90472804 1.75811376 87.90973432 1.78826337 C76.63443045 1.81933751 65.3591707 1.85807858 54.08391416 1.90355361 C47.74800837 1.9288626 41.41213388 1.95063076 35.07619095 1.96410751 C29.11893846 1.97688807 23.16179309 1.99889874 17.20459938 2.02814674 C15.01237327 2.037254 12.82012989 2.04292003 10.62788582 2.04497719 C7.64632164 2.0482776 4.66506531 2.0636942 1.68356323 2.08229065 C0.80614365 2.08035591 -0.07127593 2.07842118 -0.97528398 2.07642782 C-5.55274793 1.91180942 -5.55274793 1.91180942 -9.17474365 4.36076355 C-11.29974365 3.98576355 -11.29974365 3.98576355 -13.17474365 3.36076355 C-9.3382853 -0.61250819 -5.15710738 -0.05124716 0 0 Z " fill="#2D5572" transform="translate(145.17474365234375,382.6392364501953)"/>
<path d="M0 0 C0.66 0.33 1.32 0.66 2 1 C1.34 2.32 0.68 3.64 0 5 C0.98527679 4.99555878 1.97055359 4.99111755 2.98568726 4.98654175 C12.25622087 4.94605568 21.52673663 4.91604453 30.79733849 4.89637566 C35.56382294 4.88592388 40.33023621 4.87173936 45.09667969 4.84912109 C49.69374927 4.82744227 54.29075024 4.81544188 58.88786697 4.81024551 C60.64460964 4.80654081 62.40134841 4.79930678 64.15806198 4.78853989 C66.61245688 4.77409076 69.06656573 4.77201927 71.52099609 4.77294922 C72.25251389 4.76575867 72.98403168 4.75856812 73.73771667 4.75115967 C78.77189568 4.77189568 78.77189568 4.77189568 81 7 C53.61 7 26.22 7 -2 7 C-1 1 -1 1 0 0 Z " fill="#000205" transform="translate(211,595)"/>
<path d="M0 0 C11.22 0 22.44 0 34 0 C29.82252502 2.08873749 28.03669747 2.23669725 23.484375 2.1953125 C21.60878906 2.18564453 21.60878906 2.18564453 19.6953125 2.17578125 C18.39335938 2.15902344 17.09140625 2.14226562 15.75 2.125 C14.43257812 2.11597656 13.11515625 2.10695313 11.7578125 2.09765625 C8.50502538 2.07408533 5.25260411 2.04118022 2 2 C2.00523682 2.62342285 2.01047363 3.2468457 2.01586914 3.88916016 C2.10139949 15.64038027 2.13630492 27.29200107 1 39 C0.67 39 0.34 39 0 39 C0 26.13 0 13.26 0 0 Z " fill="#000003" transform="translate(733,413)"/>
<path d="M0 0 C0.33 0 0.66 0 1 0 C1.16845963 4.44718135 1.32892386 8.8945599 1.48217773 13.34228516 C1.53535066 14.85343062 1.59065854 16.3645026 1.64819336 17.87548828 C1.73079943 20.05485189 1.8055721 22.23436953 1.87890625 24.4140625 C1.9260376 25.7232666 1.97316895 27.0324707 2.02172852 28.38134766 C2.00167683 31.72074139 1.65655271 34.73271075 1 38 C2.98 38 4.96 38 7 38 C7 28.43 7 18.86 7 9 C7.33 9 7.66 9 8 9 C8 19.56 8 30.12 8 41 C5.36 41 2.72 41 0 41 C0 27.47 0 13.94 0 0 Z " fill="#1C5B85" transform="translate(563,566)"/>
<path d="M0 0 C0.99 0.495 0.99 0.495 2 1 C2 6.94 2 12.88 2 19 C4.51625 18.979375 7.0325 18.95875 9.625 18.9375 C17.46182583 18.90627152 25.19097418 19.30696443 33 20 C33 20.33 33 20.66 33 21 C22.11 21 11.22 21 0 21 C0 14.07 0 7.14 0 0 Z " fill="#2271A7" transform="translate(784,392)"/>
<path d="M0 0 C0.33 0 0.66 0 1 0 C1.02888146 3.31248187 1.04675799 6.62493167 1.0625 9.9375 C1.07087891 10.88302734 1.07925781 11.82855469 1.08789062 12.80273438 C1.09111328 13.70185547 1.09433594 14.60097656 1.09765625 15.52734375 C1.10289307 16.35999756 1.10812988 17.19265137 1.11352539 18.05053711 C1 20 1 20 0 21 C-2.45060745 21.01694275 -4.86920983 20.97122182 -7.31640625 20.87890625 C-8.04746078 20.85529526 -8.77851532 20.83168427 -9.53172302 20.80735779 C-11.87550456 20.73054916 -14.21896982 20.64659969 -16.5625 20.5625 C-18.14777078 20.50929648 -19.73305718 20.45655598 -21.31835938 20.40429688 C-25.21244132 20.27491096 -29.1062541 20.13911869 -33 20 C-33 19.67 -33 19.34 -33 19 C-22.44 19 -11.88 19 -1 19 C-1.03957769 13.12116997 -1.03957769 13.12116997 -1.09008789 7.24243164 C-1.09258545 6.51403076 -1.09508301 5.78562988 -1.09765625 5.03515625 C-1.10551147 3.91185913 -1.10551147 3.91185913 -1.11352539 2.76586914 C-1 1 -1 1 0 0 Z " fill="#2B6E9A" transform="translate(766,392)"/>
<path d="M0 0 C3.96 0 7.92 0 12 0 C12 0.66 12 1.32 12 2 C8.7 2 5.4 2 2 2 C2 6.62 2 11.24 2 16 C4.97 16 7.94 16 11 16 C11 16.66 11 17.32 11 18 C7.37 18 3.74 18 0 18 C0 12.06 0 6.12 0 0 Z " fill="#000104" transform="translate(751,558)"/>
<path d="M0 0 C3.63 0 7.26 0 11 0 C11.268125 0.969375 11.53625 1.93875 11.8125 2.9375 C12.204375 3.948125 12.59625 4.95875 13 6 C13.99 6.33 14.98 6.66 16 7 C14.125 7.625 14.125 7.625 12 8 C9.8614515 5.8614515 9.57344937 4.86724686 9 2 C7.02 2 5.04 2 3 2 C2.67 2.66 2.34 3.32 2 4 C1.34 3.67 0.68 3.34 0 3 C0 2.01 0 1.02 0 0 Z " fill="#1B70A6" transform="translate(846,590)"/>
<path d="M0 0 C2.35716404 2.15454249 3.78966144 4.19719874 5.1875 7.0625 C5.53167969 7.75472656 5.87585938 8.44695313 6.23046875 9.16015625 C7 11 7 11 7 13 C3.04 13 -0.92 13 -5 13 C-5 12.01 -5 11.02 -5 10 C-2.03 10 0.94 10 4 10 C3.34 8.72125 2.68 7.4425 2 6.125 C0 2.25 0 2.25 0 0 Z " fill="#187AB6" transform="translate(777,594)"/>
<path d="M0 0 C1.65 0.33 3.3 0.66 5 1 C4.01 1.33 3.02 1.66 2 2 C2.05220703 3.04800781 2.05220703 3.04800781 2.10546875 4.1171875 C2.13253906 5.02726563 2.15960938 5.93734375 2.1875 6.875 C2.22230469 7.77992188 2.25710938 8.68484375 2.29296875 9.6171875 C2.19628906 10.40351562 2.09960938 11.18984375 2 12 C1.01 12.66 0.02 13.32 -1 14 C-1.02694851 12.04174127 -1.04637218 10.08337774 -1.0625 8.125 C-1.07410156 7.03445313 -1.08570313 5.94390625 -1.09765625 4.8203125 C-1 2 -1 2 0 0 Z " fill="#276893" transform="translate(257,521)"/>
<path d="M0 0 C0.99 0.33 1.98 0.66 3 1 C0.525 2.485 0.525 2.485 -2 4 C-1.67 4.66 -1.34 5.32 -1 6 C-1.66 6 -2.32 6 -3 6 C-3.66 7.32 -4.32 8.64 -5 10 C-5.66 9.67 -6.32 9.34 -7 9 C-7.99 10.98 -8.98 12.96 -10 15 C-10.33 14.01 -10.66 13.02 -11 12 C-8.42131681 7.16496903 -4.75538014 2.8355747 0 0 Z " fill="#227EB7" transform="translate(135,382)"/>
<path d="M0 0 C1 2 1 2 0.5 4.25 C-1.58735846 8.07682385 -4.5949423 10.35061019 -8 13 C-8 9.00717059 -6.52191924 7.84668408 -4 4.8125 C-3.2575 3.91144531 -2.515 3.01039063 -1.75 2.08203125 C-1.1725 1.39496094 -0.595 0.70789063 0 0 Z " fill="#1B6FA6" transform="translate(816,562)"/>
<path d="M0 0 C2.78576391 2.53642084 4.71423062 5.40369256 6.75 8.5625 C7.38421875 9.53316406 8.0184375 10.50382813 8.671875 11.50390625 C9.11015625 12.32761719 9.5484375 13.15132812 10 14 C9.67 14.66 9.34 15.32 9 16 C8.38125 15.01 7.7625 14.02 7.125 13 C6.42375 12.01 5.7225 11.02 5 10 C4.34 10 3.68 10 3 10 C2.49596232 8.70990357 1.99690074 7.41786211 1.5 6.125 C1.2215625 5.40570312 0.943125 4.68640625 0.65625 3.9453125 C0 2 0 2 0 0 Z " fill="#1875AF" transform="translate(826,583)"/>
<path d="M0 0 C0 3.91912822 -1.5724614 5.04143734 -4 8 C-4 8.66 -4 9.32 -4 10 C-4.99 10.33 -5.98 10.66 -7 11 C-7.66 10.67 -8.32 10.34 -9 10 C-9 9.34 -9 8.68 -9 8 C-7.28515625 6.30859375 -7.28515625 6.30859375 -5.0625 4.4375 C-3.96615234 3.50744141 -3.96615234 3.50744141 -2.84765625 2.55859375 C-2.23792969 2.04425781 -1.62820313 1.52992188 -1 1 C-0.67 0.67 -0.34 0.34 0 0 Z " fill="#000409" transform="translate(524,440)"/>
<path d="M0 0 C0.33 0 0.66 0 1 0 C1.22245393 1.60226955 1.42746669 3.20696767 1.625 4.8125 C1.74101562 5.70582031 1.85703125 6.59914063 1.9765625 7.51953125 C2 10 2 10 0 13 C-1.98384711 9.03230578 -1.32630565 4.14470514 0 0 Z " fill="#2772A4" transform="translate(181,473)"/>
<path d="M0 0 C0.33 0 0.66 0 1 0 C1.59222907 3.01264352 2.05823431 5.92416977 2 9 C0.0625 11.5625 0.0625 11.5625 -2 13 C-2 10.0845524 -1.59136731 7.65845519 -1 4.8125 C-0.814375 3.91144531 -0.62875 3.01039063 -0.4375 2.08203125 C-0.293125 1.39496094 -0.14875 0.70789063 0 0 Z " fill="#2877AC" transform="translate(510,473)"/>
<path d="M0 0 C0.33 0 0.66 0 1 0 C0.67 2.97 0.34 5.94 0 9 C-0.66 9 -1.32 9 -2 9 C-2 7.02 -2 5.04 -2 3 C-1.34 3 -0.68 3 0 3 C0 2.01 0 1.02 0 0 Z " fill="#000407" transform="translate(618,580)"/>
<path d="M0 0 C0 3 0 3 -1.3125 4.38671875 C-2.875 5.59114583 -4.4375 6.79557292 -6 8 C-6 5 -6 5 -4.6875 3.61328125 C-3.125 2.40885417 -1.5625 1.20442708 0 0 Z " fill="#00050A" transform="translate(526,499)"/>
</svg>
